<svg width="32" height="32" viewBox="0 0 32 32" fill="none" xmlns="http://www.w3.org/2000/svg">
<g id="PenNibStraight">
<path id="Vector" opacity="0.2" d="M26.4239 15.9293L23.0007 9.00049H9.00065L5.57731 15.9293C5.49609 16.0937 5.46164 16.2773 5.47774 16.46C5.49383 16.6427 5.55984 16.8175 5.66856 16.9651L16.0007 31.0005L26.3327 16.9651C26.4414 16.8174 26.5074 16.6427 26.5235 16.46C26.5396 16.2773 26.5052 16.0937 26.4239 15.9293ZM16.0007 19.0005C15.5062 19.0005 15.0229 18.8539 14.6117 18.5792C14.2006 18.3045 13.8802 17.914 13.691 17.4572C13.5017 17.0004 13.4522 16.4977 13.5487 16.0128C13.6452 15.5278 13.8833 15.0824 14.2329 14.7327C14.5825 14.3831 15.028 14.145 15.5129 14.0485C15.9979 13.9521 16.5005 14.0016 16.9574 14.1908C17.4142 14.38 17.8046 14.7004 18.0793 15.1116C18.354 15.5227 18.5007 16.006 18.5007 16.5005C18.5007 16.8288 18.436 17.1539 18.3104 17.4572C18.1847 17.7605 18.0006 18.0361 17.7684 18.2683C17.5363 18.5004 17.2607 18.6846 16.9574 18.8102C16.6541 18.9358 16.329 19.0005 16.0007 19.0005Z" fill="#0D9589"/>
<path id="Vector_2" d="M16.0007 19.0005L16.0007 31.0005" stroke="#0D9589" stroke-width="2" stroke-linecap="round" stroke-linejoin="round"/>
<path id="Vector_3" d="M16.0007 19.0005C17.3814 19.0005 18.5007 17.8812 18.5007 16.5005C18.5007 15.1198 17.3814 14.0005 16.0007 14.0005C14.62 14.0005 13.5007 15.1198 13.5007 16.5005C13.5007 17.8812 14.62 19.0005 16.0007 19.0005Z" stroke="#0D9589" stroke-width="2" stroke-linecap="round" stroke-linejoin="round"/>
<path id="Vector_4" d="M9.00073 9.00049V4.00049C9.00073 3.73527 9.10609 3.48092 9.29363 3.29338C9.48116 3.10585 9.73552 3.00049 10.0007 3.00049H22.0007C22.2659 3.00049 22.5203 3.10585 22.7078 3.29338C22.8954 3.48092 23.0007 3.73527 23.0007 4.00049V9.00049" stroke="#0D9589" stroke-width="2" stroke-linecap="round" stroke-linejoin="round"/>
<path id="Vector_5" d="M9.00066 9.00049L5.57733 15.9293C5.4961 16.0938 5.46164 16.2773 5.47773 16.46C5.49382 16.6427 5.55984 16.8174 5.66855 16.9651L16.0007 31.0005L26.3327 16.9651C26.4414 16.8174 26.5075 16.6426 26.5235 16.46C26.5396 16.2773 26.5052 16.0937 26.4239 15.9293L23.0007 9.00049H9.00066Z" stroke="#0D9589" stroke-width="2" stroke-linecap="round" stroke-linejoin="round"/>
</g>
</svg>
